<?xml version="1.0" encoding="UTF-8" standalone="no"?>
<svg
   id="Layer_1"
   data-name="Layer 1"
   width="34.99998"
   height="35"
   viewBox="0 0 34.99998 35"
   version="1.1"
   sodipodi:docname="TMKnob.svg"
   inkscape:version="1.3.2 (091e20e, 2023-11-25, custom)"
   xmlns:inkscape="http://www.inkscape.org/namespaces/inkscape"
   xmlns:sodipodi="http://sodipodi.sourceforge.net/DTD/sodipodi-0.dtd"
   xmlns="http://www.w3.org/2000/svg"
   xmlns:svg="http://www.w3.org/2000/svg">
  <defs
     id="defs1" />
  <sodipodi:namedview
     id="namedview1"
     pagecolor="#ffffff"
     bordercolor="#000000"
     borderopacity="0.25"
     inkscape:showpageshadow="2"
     inkscape:pageopacity="0.0"
     inkscape:pagecheckerboard="0"
     inkscape:deskcolor="#d1d1d1"
     showguides="true"
     inkscape:zoom="22.627418"
     inkscape:cx="15.09231"
     inkscape:cy="16.6833"
     inkscape:window-width="1920"
     inkscape:window-height="974"
     inkscape:window-x="-11"
     inkscape:window-y="-11"
     inkscape:window-maximized="1"
     inkscape:current-layer="Layer_1" />
  <title
     id="title1">TMKnob</title>
  <path
     id="SVGID"
     d="M 14.76917,0.01914 C 14.17586,0.06951 13.88777,0.7988 13.71754,1.03552 A 5.58216,5.58216 0 0 1 10.82154,3.28887 4.283,4.283 0 0 1 7.95776,3.5266 3.00688,3.00688 0 0 0 7.19422,3.38155 1.47012,1.47012 0 0 0 6.43572,3.82577 L 3.45709,6.79431 3.20728,7.07031 C 2.8245,7.52561 3.13576,8.24282 3.18411,8.53091 A 5.59954,5.59954 0 0 1 2.7278,12.17435 C 1.84237,14.21214 0.67238,14.324 0.23017,14.80444 A 1.47184,1.47184 0 0 0 0.00604,15.65461 L 0,19.85912 l 0.01864,0.3717 c 0.05137,0.5923 0.77966,0.88039 1.01688,1.04962 a 5.60944,5.60944 0 0 1 2.25436,2.899 c 0.81189,2.067 0.06648,2.97358 0.09267,3.62531 a 1.46806,1.46806 0 0 0 0.44322,0.76052 l 2.96753,2.97865 0.276,0.24679 c 0.4553,0.38479 1.17452,0.07253 1.46261,0.02418 a 5.59258,5.59258 0 0 1 3.64243,0.4553 c 2.03678,0.88845 2.1496,2.05693 2.63109,2.49813 a 1.46287,1.46287 0 0 0 0.85017,0.22362 L 19.8581,35 20.22879,34.97985 c 0.59431,-0.05037 0.8824,-0.77966 1.05163,-1.01638 a 5.59687,5.59687 0 0 1 2.899,-2.25335 4.27936,4.27936 0 0 1 2.85874,-0.23672 2.98421,2.98421 0 0 0 0.76556,0.144 1.46085,1.46085 0 0 0 0.75951,-0.44322 l 2.97962,-2.96955 0.2478,-0.274 c 0.38278,-0.45631 0.07253,-1.17452 0.02418,-1.46463 a 5.58665,5.58665 0 0 1 0.4553,-3.64042 c 0.88643,-2.0388 2.05693,-2.15061 2.49813,-2.63009 a 1.45087,1.45087 0 0 0 0.22362,-0.85017 L 35,15.13987 34.97985,14.76817 c -0.05037,-0.5923 -0.77966,-0.88039 -1.01537,-1.04962 a 5.59555,5.59555 0 0 1 -2.25637,-2.897 C 30.89622,8.75255 31.64364,7.84596 31.61544,7.19523 A 1.45,1.45 0 0 0 31.17222,6.43572 L 28.20467,3.4581 27.92867,3.20829 C 27.47538,2.82551 26.75616,3.13677 26.46807,3.18411 A 5.60008,5.60008 0 0 1 22.82564,2.72881 C 20.78684,1.84237 20.674,0.67188 20.19454,0.23067 A 1.46216,1.46216 0 0 0 19.34437,0.00805 L 15.13986,0 Z"
     style="display:inline;opacity:1;fill:#313031;fill-opacity:1"
     inkscape:label="body" />
  <path
     id="path3"
     d="m 14.964202,1.2677891 c -0.550929,0.046772 -0.81844,0.723969 -0.97651,0.9437801 A 5.1834187,5.1834274 0 0 1 11.298557,4.3039627 3.9770596,3.9770661 0 0 1 8.6393397,4.5247118 2.7920945,2.7920991 0 0 0 7.9303404,4.3900227 1.3651074,1.3651096 0 0 0 7.2260211,4.8025123 L 4.4601586,7.55901 4.2281928,7.8152951 C 3.8727553,8.2380733 4.1617818,8.9040527 4.2066778,9.1715646 a 5.1995573,5.1995659 0 0 1 -0.423715,3.3831904 c -0.8221825,1.892231 -1.9085986,1.996102 -2.319221,2.442224 a 1.3667044,1.3667068 0 0 0 -0.2081201,0.789442 l -0.00561,3.904182 0.017309,0.34515 c 0.0477,0.549992 0.7239679,0.817505 0.9442429,0.974646 a 5.2087501,5.2087589 0 0 1 2.093328,2.691926 c 0.7538957,1.919352 0.06173,2.761176 0.08605,3.366354 a 1.3631944,1.3631968 0 0 0 0.4115601,0.706196 l 2.7555554,2.765886 0.2562849,0.229161 c 0.4227774,0.357304 1.0906225,0.06733 1.3581338,0.02244 a 5.1930946,5.193103 0 0 1 3.3822492,0.422779 c 1.891289,0.824987 1.99605,1.910003 2.443147,2.319689 a 1.3583752,1.3583775 0 0 0 0.789441,0.207647 l 3.902309,0.0075 0.344213,-0.0187 c 0.551855,-0.04677 0.819367,-0.72397 0.97651,-0.943781 a 5.1970781,5.1970866 0 0 1 2.69192,-2.092392 3.9736796,3.9736861 0 0 1 2.654536,-0.219812 2.771044,2.7710484 0 0 0 0.710874,0.133714 1.3564995,1.3565018 0 0 0 0.705257,-0.411561 l 2.766782,-2.757435 0.230099,-0.254429 c 0.355438,-0.423716 0.06733,-1.090624 0.02246,-1.36001 a 5.1875881,5.1875967 0 0 1 0.422775,-3.380387 c 0.823112,-1.893169 1.910001,-1.996992 2.319686,-2.442223 A 1.3472324,1.3472346 0 0 0 33.74238,19.21352 l 0.0076,-3.905057 -0.0187,-0.34515 c -0.04679,-0.549968 -0.723985,-0.81748 -0.942858,-0.974623 a 5.1958523,5.1958609 0 0 1 -2.09523,-2.69008 C 29.939278,9.3773733 30.633308,8.5355407 30.607119,7.9312921 A 1.3464245,1.3464268 0 0 0 30.19556,7.2260338 L 27.439985,4.4611048 27.1837,4.2291386 C 26.76279,3.8737006 26.094945,4.1627273 25.827433,4.2066858 A 5.2000587,5.2000674 0 0 1 22.445188,3.7839078 C 20.55202,2.9607862 20.44724,1.8739039 20.002029,1.4642096 a 1.3577159,1.3577181 0 0 0 -0.78944,-0.2067184 l -3.904177,-0.00747 z"
     style="display:inline;opacity:1;fill:none;stroke:#464646;stroke-width:0.999997;stroke-dasharray:none;stroke-opacity:1"
     inkscape:label="outline_light" />
  <path
     id="path4"
     d="M 14.847187,0.5186087 C 14.270829,0.5675395 13.990971,1.2759924 13.825605,1.5059489 A 5.4226625,5.4226676 0 0 1 11.012351,3.6949166 4.160623,4.1606269 0 0 1 8.2303973,3.9258543 2.9209653,2.920968 0 0 0 7.4886737,3.7849486 1.4281147,1.428116 0 0 0 6.7518461,4.2164764 L 3.8583237,7.1001998 3.6156515,7.3683139 C 3.2438085,7.8106052 3.5461752,8.5073233 3.5931435,8.787182 a 5.4395459,5.439551 0 0 1 -0.443272,3.539341 c -0.8601308,1.979567 -1.996691,2.088231 -2.4262659,2.554943 a 1.4297855,1.4297868 0 0 0 -0.21772599,0.825879 l -0.005868,4.084379 0.0181074,0.361081 c 0.0499022,0.575376 0.75738299,0.855236 0.98782499,1.01963 a 5.449163,5.4491682 0 0 1 2.1899468,2.81617 c 0.7886921,2.007942 0.06458,2.888619 0.090022,3.521729 a 1.4261135,1.4261148 0 0 0 0.430556,0.73879 l 2.8827396,2.893545 0.268114,0.239738 c 0.4422908,0.373797 1.1409607,0.07045 1.4208192,0.0235 a 5.4327848,5.4327898 0 0 1 3.5383564,0.442291 c 1.978584,0.863065 2.08818,1.99816 2.555913,2.426754 a 1.4210718,1.4210732 0 0 0 0.825878,0.217231 l 4.082423,0.0078 0.360099,-0.01957 c 0.577328,-0.04893 0.857186,-0.757384 1.021582,-0.987341 a 5.4369522,5.4369572 0 0 1 2.816168,-2.188967 4.157087,4.1570909 0 0 1 2.777058,-0.229956 2.898943,2.8989457 0 0 0 0.743685,0.139885 1.4191095,1.4191108 0 0 0 0.737809,-0.430557 l 2.894484,-2.884704 0.24072,-0.266171 c 0.371842,-0.443273 0.07045,-1.140962 0.02349,-1.422783 a 5.4270242,5.4270292 0 0 1 0.442291,-3.536407 c 0.861102,-1.980548 1.998157,-2.089163 2.426751,-2.554943 A 1.4094147,1.409416 0 0 0 34.49208,19.29259 l 0.0079,-4.085293 -0.01957,-0.36108 c -0.04893,-0.575339 -0.757383,-0.855198 -0.986358,-1.019593 a 5.4356699,5.435675 0 0 1 -2.191914,-2.81425 C 30.513446,9.0024893 31.239509,8.1218023 31.212112,7.4896647 A 1.4085695,1.4085708 0 0 0 30.781557,6.7518553 L 27.898797,3.8593114 27.630684,3.6166389 C 27.190345,3.2447957 26.491675,3.5471624 26.211817,3.5931498 A 5.4400705,5.4400756 0 0 1 22.673461,3.1508586 C 20.692915,2.2897458 20.583299,1.1526987 20.117539,0.7240949 A 1.4203821,1.4203834 0 0 0 19.291661,0.50783555 l -4.084376,-0.00782 z"
     style="display:inline;opacity:1;fill:none;stroke:#101010;stroke-width:1;stroke-dasharray:none;stroke-opacity:1"
     inkscape:label="outline_dark" />
  <path
     fill="#e3e3e3"
     d="m 17.5,1.55579 v 0 c -0.3887,0 -0.70381,0.31511 -0.70381,0.70381 v 14.53657 c 0,0.3887 0.31511,0.70381 0.70381,0.70381 v 0 c 0.3887,0 0.70381,-0.31511 0.70381,-0.70381 V 2.2596 C 18.20381,1.87089 17.8887,1.55579 17.5,1.55579 Z"
     id="path8"
     style="display:inline;fill:#ffffff;fill-opacity:1"
     inkscape:label="line" />
</svg>
