<svg xmlns="http://www.w3.org/2000/svg">
<defs>
<font
       horiz-adv-x="1000"
       id="font3"
       inkscape:label="mm_wolf"
       horiz-origin-x="0"
       horiz-origin-y="0"
       vert-origin-x="512"
       vert-origin-y="768"
       vert-adv-y="1024">
      <font-face
         units-per-em="1000"
         ascent="750"
         cap-height="600"
         x-height="400"
         descent="200"
         id="font-face3"
         font-family="SVGFont" />
      <missing-glyph
         d="M0,0h1000v1000h-1000z"
         id="missing-glyph3" />
      <glyph
         glyph-name="space"
         unicode=" "
         id="glyph3" />
      <glyph
         glyph-name=""
         unicode="!"
         id="glyph4" />
      <glyph
         glyph-name=""
         unicode="&quot;"
         id="glyph5" />
      <glyph
         glyph-name=""
         unicode="#"
         id="glyph6" />
      <glyph
         glyph-name=""
         unicode="$"
         id="glyph7" />
      <glyph
         glyph-name=""
         unicode="%"
         id="glyph8" />
      <glyph
         glyph-name=""
         unicode="&amp;"
         id="glyph9" />
      <glyph
         glyph-name=""
         unicode="'"
         id="glyph10" />
      <glyph
         glyph-name=""
         unicode="("
         id="glyph11" />
      <glyph
         glyph-name=""
         unicode=")"
         id="glyph12" />
      <glyph
         glyph-name=""
         unicode="*"
         id="glyph13" />
      <glyph
         glyph-name=""
         unicode="+"
         id="glyph14" />
      <glyph
         glyph-name=""
         unicode=","
         id="glyph15" />
      <glyph
         glyph-name=""
         unicode="-"
         id="glyph16"
         d="M 250,600 V 400 h 500 v 200 z" />
      <glyph
         glyph-name=""
         unicode="."
         id="glyph17" />
      <glyph
         glyph-name=""
         unicode="/"
         id="glyph18" />
      <glyph
         glyph-name="0"
         unicode="0"
         id="glyph19"
         d="M 50,950 V 50 H 950 V 950 Z M 250,750 H 578.57031 L 250,366.66602 Z M 750,633.33398 V 250 H 421.42969 Z" />
      <glyph
         glyph-name="1"
         unicode="1"
         id="glyph20"
         d="m 500,950 c -33.69251,-0.37723 -67.23614,-3.38508 -100,-11.25 V 700 L 401.58008,250.00586 600,250 l 0.0137,688.60937 C 567.20669,946.13469 533.65894,949.95547 500,950 Z M 600,250 H 50 V 50 H 950 V 250 Z M 400,700 H 50 V 500 h 350 z" />
      <glyph
         glyph-name="2"
         unicode="2"
         id="glyph21"
         d="M 50,950 V 700 h 200 v 50 H 750 V 500 H 50 V 50 H 950 V 250 H 250 v 50 h 700 v 650 z" />
      <glyph
         glyph-name="3"
         unicode="3"
         id="glyph22"
         d="M 50,950 V 750 H 750 V 600 H 400 V 400 H 750 V 250 H 250 V 500 H 50 V 50 h 900 v 900 z" />
      <glyph
         glyph-name="4"
         unicode="4"
         id="glyph23"
         d="M 50,950 V 500 H 750 V 50 h 250 V 250 H 950 V 950 H 750 V 700 H 250 v 250 z" />
      <glyph
         glyph-name="5"
         unicode="5"
         id="glyph24"
         d="M 0,950 V 750 H 50 V 500 H 750 V 250 H 50 V 50 H 950 V 700 H 250 v 50 h 700 v 200 z" />
      <glyph
         glyph-name="6"
         unicode="6"
         id="glyph25"
         d="M 50,950 V 50 H 950 V 700 H 250 v 50 H 500 V 950 Z M 250,500 H 750 V 250 H 250 Z" />
      <glyph
         glyph-name="7"
         unicode="7"
         id="glyph26"
         d="M 50,950 V 750 H 750 V 50 h 200 v 900 z" />
      <glyph
         glyph-name="8"
         unicode="8"
         id="glyph27"
         d="M 50,950 V 50 H 950 V 950 Z M 250,750 H 750 V 500 H 250 Z m 0,-450 H 750 V 250 H 250 Z" />
      <glyph
         glyph-name="9"
         unicode="9"
         id="glyph28"
         d="M 50,950 V 500 H 750 V 50 h 250 V 250 H 950 V 950 Z M 250,750 H 750 V 700 H 250 Z" />
      <glyph
         glyph-name=""
         unicode=":"
         id="glyph29" />
      <glyph
         glyph-name=""
         unicode=";"
         id="glyph30" />
      <glyph
         glyph-name=""
         unicode="&lt;"
         id="glyph31" />
      <glyph
         glyph-name=""
         unicode="="
         id="glyph32" />
      <glyph
         glyph-name=""
         unicode="&gt;"
         id="glyph33" />
      <glyph
         glyph-name=""
         unicode="?"
         id="glyph34" />
      <glyph
         glyph-name=""
         unicode="@"
         id="glyph35" />
      <glyph
         glyph-name="A"
         unicode="A"
         id="glyph36"
         d="M 50,950 V 50 H 250 V 300 H 750 V 50 H 950 V 950 Z M 250,750 H 750 V 500 H 250 Z" />
      <glyph
         glyph-name="B"
         unicode="B"
         id="glyph37"
         d="M 50,950 V 50 H 950 V 600 H 721.42773 L 850,750 H 950 V 950 Z M 250,750 H 578.57031 L 450,600 H 250 Z m 0,-350 H 750 V 250 H 250 Z" />
      <glyph
         glyph-name="C"
         unicode="C"
         id="glyph38"
         d="M 50,950 V 50 H 950 V 250 H 250 V 750 H 550 L 750,516.66602 764.28516,500 H 950 v 100 400 H 750 V 833.33398 L 650,950 Z" />
      <glyph
         glyph-name="D"
         unicode="D"
         id="glyph39"
         d="M 50,950 V 50 H 250 700 L 950,341.66602 V 658.33398 L 700,950 H 250 Z M 250,750 H 600 L 750,575 V 425 L 600,250 H 250 Z" />
      <glyph
         glyph-name="E"
         unicode="E"
         id="glyph40"
         d="M 50,950 V 750 H 150 L 278.57143,600 H 50 V 50 H 950 V 250 H 250 V 400 H 950 V 600 H 550 L 421.42773,750 H 950 v 200 z" />
      <glyph
         glyph-name="F"
         unicode="F"
         id="glyph41"
         d="M 50,950 V 250 H 0 V 50 H 250 V 400 H 950 V 600 H 250 v 150 h 700 v 200 z" />
      <glyph
         glyph-name="G"
         unicode="G"
         id="glyph42"
         d="M 50,950 V 50 H 950 V 500 H 750 V 250 H 250 v 500 h 700 v 200 z" />
      <glyph
         glyph-name="H"
         unicode="H"
         id="glyph43"
         d="M 50,950 V 50 H 250 V 400 H 750 V 50 h 250 V 250 H 950 V 950 H 750 V 600 H 250 v 350 z" />
      <glyph
         glyph-name="I"
         unicode="I"
         id="glyph44"
         d="M 400,1000 V 950 H 50 V 750 H 400 V 250 H 50 V 50 H 950 V 250 H 600 V 750 H 950 V 950 H 600.00781 L 600,1000 Z" />
      <glyph
         glyph-name="J"
         unicode="J"
         id="glyph45"
         d="M 50,950 V 750 H 750 V 425 L 600,250 H 50 V 50 H 700 L 950,341.66602 V 950 Z" />
      <glyph
         glyph-name="K"
         unicode="K"
         id="glyph46"
         d="M 50,950 V 50 H 250 V 400 H 450 L 750,50 H 950 V 250 H 850 L 635.71484,500 850,750 H 950 V 950 H 750 L 450,600 H 250 v 350 z" />
      <glyph
         glyph-name="L"
         unicode="L"
         id="glyph47"
         d="M 250,950 V 425 L 400,250 H 950 V 50 H 300 L 50,341.66602 V 950 Z" />
      <glyph
         glyph-name="M"
         unicode="M"
         id="glyph48"
         d="M 50,1000 V 50 H 250 V 750 H 400 V 61.25 C 432.76386,53.38508 466.30749,50.37723 500,50 c 33.69251,0.37723 67.23614,3.38508 100,11.25 V 750 H 750 V 50 h 200 v 700 h 50 V 950 H 250 v 50 z" />
      <glyph
         glyph-name="N"
         unicode="N"
         id="glyph49"
         d="M 50,50 V 950 H 600 V 250 H 750 V 950 H 950 V 50 H 400 V 750 H 250 V 50 Z" />
      <glyph
         glyph-name="O"
         unicode="O"
         id="glyph76"
         d="M 300,950 50,658.33398 V 50 H 700 L 950,341.66602 V 950 Z M 400,750 H 750 V 425 L 600,250 H 250 v 325 z" />
      <glyph
         glyph-name="P"
         unicode="P"
         id="glyph77"
         d="M 50,950 V 750 H 750 V 600 H 50 V 250 H 0 V 50 h 250 v 350 h 700 v 550 z" />
      <glyph
         glyph-name="Q"
         unicode="Q"
         id="glyph78"
         d="M 300,950 50,658.33398 V 50 H 700 L 725,79.16602 750,50 H 950 V 250 H 871.42969 L 950,341.66602 V 950 Z M 400,750 H 750 V 425 L 725,395.83398 635.71484,500 H 364.28516 L 578.57031,250 H 250 v 325 z" />
      <glyph
         glyph-name="R"
         unicode="R"
         id="glyph79"
         d="M 50,950 V 50 H 250 V 400 H 450 L 750,50 H 950 V 250 H 850 L 721.42969,400 H 950 V 950 H 400 V 600 H 250 V 950 Z M 600,750 H 750 V 600 H 600 Z" />
      <glyph
         glyph-name="S"
         unicode="S"
         id="glyph80"
         d="M 50,950 V 400 H 750 V 250 H 50 V 50 H 950 V 600 H 250 v 150 h 700 v 200 z" />
      <glyph
         glyph-name="T"
         unicode="T"
         id="glyph81"
         d="M 50,950 V 700 h 200 v 50 H 400 V 50 h 200 v 700 h 150 v -50 h 200 v 250 z" />
      <glyph
         glyph-name="U"
         unicode="U"
         id="glyph82"
         d="M 50,950 V 50 H 700 L 950,341.66602 V 950 H 750 V 425 L 600,250 H 250 v 700 z" />
      <glyph
         glyph-name="V"
         unicode="V"
         id="glyph83"
         d="M 950,950 H 750 L 250,366.66697 V 950 H 50 V 50 h 200 l 600,700 h 100 z" />
      <glyph
         glyph-name="W"
         unicode="W"
         id="glyph84"
         d="M 50,950 V 250 H 0 V 50 H 750 V 0 H 950 V 950 H 750 V 250 H 600 v 688.75 c -32.76386,7.86492 -66.30749,10.87277 -100,11.25 -33.69251,-0.37723 -67.23614,-3.38508 -100,-11.25 V 250 H 250 v 700 z" />
      <glyph
         glyph-name="X"
         unicode="X"
         id="glyph85"
         d="M 50,950 V 750 H 150 L 364.28516,500 150,250 H 50 V 50 H 250 L 500,341.66602 750,50 H 950 V 250 H 850 L 635.71484,500 850,750 H 950 V 950 H 750 L 500,658.33398 250,950 Z" />
      <glyph
         glyph-name="Y"
         unicode="Y"
         id="glyph86"
         d="M 50,950 V 750 H 150 L 364.28516,500 H 635.71429 L 250,950 Z m 700,0 V 425 L 600,250 H 50 V 50 H 700 L 950,341.66602 V 950 Z" />
      <glyph
         glyph-name="Z"
         unicode="Z"
         id="glyph87"
         d="M 50,750 H 578.57105 L 150,250 H 50 V 50 H 950 V 250 H 421.42895 L 850,750 H 950 V 950 H 50 Z" />
      <glyph
         glyph-name=""
         unicode="["
         id="glyph88" />
      <glyph
         glyph-name=""
         unicode="\"
         id="glyph89" />
      <glyph
         glyph-name=""
         unicode="]"
         id="glyph90" />
      <glyph
         glyph-name=""
         unicode="^"
         id="glyph91" />
      <glyph
         glyph-name=""
         unicode="_"
         id="glyph92" />
      <glyph
         glyph-name=""
         unicode="`"
         id="glyph93" />
      <glyph
         glyph-name=""
         unicode="a"
         id="glyph94"
         d="M 50,750 V 550 H 750 V 500 H 50 V 50 H 635.71484 L 750,183.33398 V 50 H 950 V 750 Z M 250,300 H 578.57227 L 535.71484,250 H 250 Z" />
      <glyph
         glyph-name=""
         unicode="b"
         id="glyph95"
         d="M 50,750 V 50 H 950 V 500 H 364.28516 L 250,366.66602 V 750 Z M 464.28516,300 H 750 V 250 H 421.42773 Z" />
      <glyph
         glyph-name=""
         unicode="c"
         id="glyph96"
         d="M 50,50 H 950 V 250 H 250 V 550 H 950 V 750 H 50 Z" />
      <glyph
         glyph-name=""
         unicode="d"
         id="glyph97"
         d="M 750,750 V 500 H 50 V 50 H 635.71484 L 750,183.33398 V 50 H 950 V 750 Z M 250,300 H 578.57227 L 535.71484,250 H 250 Z" />
      <glyph
         glyph-name=""
         unicode="e"
         id="glyph156"
         d="M 50,750 V 50 H 950 V 250 H 250 v 50 H 950 V 750 Z M 250,550 H 750 V 500 H 250 Z" />
      <glyph
         glyph-name=""
         unicode="f"
         id="glyph157" />
      <glyph
         glyph-name=""
         unicode="g"
         id="glyph158"
         d="M 50,750 V 300 H 750 V 250 H 50 V 50 H 950 V 750 Z M 250,550 H 750 V 500 H 250 Z" />
      <glyph
         glyph-name=""
         unicode="h"
         id="glyph159" />
      <glyph
         glyph-name=""
         unicode="i"
         id="glyph160" />
      <glyph
         glyph-name=""
         unicode="j"
         id="glyph161" />
      <glyph
         glyph-name=""
         unicode="k"
         id="glyph162" />
      <glyph
         glyph-name=""
         unicode="l"
         id="glyph163" />
      <glyph
         glyph-name=""
         unicode="m"
         id="glyph164" />
      <glyph
         glyph-name=""
         unicode="n"
         id="glyph165" />
      <glyph
         glyph-name=""
         unicode="o"
         id="glyph166" />
      <glyph
         glyph-name=""
         unicode="p"
         id="glyph167" />
      <glyph
         glyph-name=""
         unicode="q"
         id="glyph168" />
      <glyph
         glyph-name=""
         unicode="r"
         id="glyph169" />
      <glyph
         glyph-name=""
         unicode="s"
         id="glyph170" />
      <glyph
         glyph-name=""
         unicode="t"
         id="glyph171" />
      <glyph
         glyph-name=""
         unicode="u"
         id="glyph172" />
      <glyph
         glyph-name=""
         unicode="v"
         id="glyph173" />
      <glyph
         glyph-name=""
         unicode="w"
         id="glyph174" />
      <glyph
         glyph-name=""
         unicode="x"
         id="glyph175" />
      <glyph
         glyph-name=""
         unicode="y"
         id="glyph176" />
      <glyph
         glyph-name=""
         unicode="z"
         id="glyph177" />
    </font>
</defs>
</svg>
